<svg width="13" height="13" fill="none" xmlns="http://www.w3.org/2000/svg"><g clip-path="url(#a)" fill="#000"><path d="M9.481 0H3.519A3.523 3.523 0 0 0 0 3.519v5.962A3.523 3.523 0 0 0 3.519 13h5.962A3.523 3.523 0 0 0 13 9.481V3.52A3.523 3.523 0 0 0 9.481 0Zm2.757 9.481a2.76 2.76 0 0 1-2.757 2.757H3.519A2.76 2.76 0 0 1 .762 9.48V3.52A2.76 2.76 0 0 1 3.52.762h5.962a2.76 2.76 0 0 1 2.757 2.757v5.962Z"/><path d="M6.5 2.945A3.559 3.559 0 0 0 2.945 6.5 3.559 3.559 0 0 0 6.5 10.055 3.559 3.559 0 0 0 10.055 6.5 3.559 3.559 0 0 0 6.5 2.945Zm0 6.347A2.796 2.796 0 0 1 3.707 6.5 2.796 2.796 0 0 1 6.5 3.707 2.796 2.796 0 0 1 9.292 6.5 2.796 2.796 0 0 1 6.5 9.292ZM10.14 1.683a1.051 1.051 0 0 0 0 2.1 1.052 1.052 0 0 0 0-2.1Zm0 1.339a.289.289 0 1 1 0-.578.289.289 0 0 1 0 .578Z"/></g><defs><clipPath id="a"><path fill="#fff" d="M0 0h13v13H0z"/></clipPath></defs></svg>