<svg width="11" height="11" fill="none" xmlns="http://www.w3.org/2000/svg"><g clip-path="url(#a)" fill="#000"><path d="M10.997 11H11V6.965c0-1.973-.425-3.494-2.732-3.494-1.11 0-1.854.61-2.157 1.186h-.033V3.656H3.891V11h2.278V7.363c0-.957.181-1.883 1.367-1.883 1.168 0 1.186 1.093 1.186 1.945V11h2.275ZM.181 3.656h2.281V11H.182V3.656ZM1.32 0C.593 0 0 .592 0 1.32c0 .73.592 1.334 1.32 1.334.73 0 1.322-.604 1.322-1.333C2.642.59 2.05 0 1.32 0Z"/></g><defs><clipPath id="a"><path fill="#fff" d="M0 0h11v11H0z"/></clipPath></defs></svg>